<mxfile host="app.diagrams.net" agent="Mozilla/5.0 (Windows NT 10.0; Win64; x64) AppleWebKit/537.36 (KHTML, like Gecko) Chrome/141.0.0.0 Safari/537.36" version="28.2.8">
  <diagram name="Página-1" id="9vZJ7YrCy0OgQ9qXh5b9">
    <mxGraphModel dx="1389" dy="749" grid="1" gridSize="10" guides="1" tooltips="1" connect="1" arrows="1" fold="1" page="1" pageScale="1" pageWidth="827" pageHeight="1169" math="0" shadow="0">
      <root>
        <mxCell id="0" />
        <mxCell id="1" parent="0" />
        <mxCell id="4c-o3fyn7Z1UKCA1IbDz-1" value="MER - DER&lt;div&gt;Projeto Fábrica de automoveis&lt;/div&gt;" style="text;html=1;whiteSpace=wrap;strokeColor=none;fillColor=none;align=center;verticalAlign=middle;rounded=0;" vertex="1" parent="1">
          <mxGeometry x="380" y="30" width="86" height="30" as="geometry" />
        </mxCell>
        <mxCell id="4c-o3fyn7Z1UKCA1IbDz-2" value="Automovel" style="whiteSpace=wrap;html=1;align=center;fillColor=#fff2cc;strokeColor=#d6b656;" vertex="1" parent="1">
          <mxGeometry x="100" y="130" width="100" height="40" as="geometry" />
        </mxCell>
        <mxCell id="4c-o3fyn7Z1UKCA1IbDz-3" value="Concessionaria" style="whiteSpace=wrap;html=1;align=center;fillColor=#fff2cc;strokeColor=#d6b656;" vertex="1" parent="1">
          <mxGeometry x="590" y="290" width="100" height="40" as="geometry" />
        </mxCell>
        <mxCell id="4c-o3fyn7Z1UKCA1IbDz-4" value="Cliente" style="whiteSpace=wrap;html=1;align=center;fillColor=#fff2cc;strokeColor=#d6b656;" vertex="1" parent="1">
          <mxGeometry x="606.5" y="585" width="100" height="40" as="geometry" />
        </mxCell>
        <mxCell id="4c-o3fyn7Z1UKCA1IbDz-5" value="Alocacao" style="whiteSpace=wrap;html=1;align=center;fillColor=#fff2cc;strokeColor=#d6b656;" vertex="1" parent="1">
          <mxGeometry x="290" y="290" width="100" height="40" as="geometry" />
        </mxCell>
        <mxCell id="4c-o3fyn7Z1UKCA1IbDz-6" value="nome" style="ellipse;whiteSpace=wrap;html=1;align=center;fillColor=#d5e8d4;strokeColor=#82b366;" vertex="1" parent="1">
          <mxGeometry x="666.5" y="655" width="100" height="40" as="geometry" />
        </mxCell>
        <mxCell id="4c-o3fyn7Z1UKCA1IbDz-7" value="Id" style="ellipse;whiteSpace=wrap;html=1;align=center;fontStyle=4;fillColor=#d5e8d4;strokeColor=#82b366;" vertex="1" parent="1">
          <mxGeometry x="553.5" y="655" width="100" height="40" as="geometry" />
        </mxCell>
        <mxCell id="4c-o3fyn7Z1UKCA1IbDz-8" value="concessionaria" style="ellipse;whiteSpace=wrap;html=1;align=center;fillColor=#d5e8d4;strokeColor=#82b366;" vertex="1" parent="1">
          <mxGeometry x="650" y="200" width="100" height="40" as="geometry" />
        </mxCell>
        <mxCell id="4c-o3fyn7Z1UKCA1IbDz-9" value="Id" style="ellipse;whiteSpace=wrap;html=1;align=center;fontStyle=4;fillColor=#d5e8d4;strokeColor=#82b366;" vertex="1" parent="1">
          <mxGeometry x="537" y="200" width="100" height="40" as="geometry" />
        </mxCell>
        <mxCell id="4c-o3fyn7Z1UKCA1IbDz-10" value="modelo" style="ellipse;whiteSpace=wrap;html=1;align=center;fillColor=#d5e8d4;strokeColor=#82b366;" vertex="1" parent="1">
          <mxGeometry x="100" y="240" width="100" height="40" as="geometry" />
        </mxCell>
        <mxCell id="4c-o3fyn7Z1UKCA1IbDz-18" style="rounded=0;orthogonalLoop=1;jettySize=auto;html=1;exitX=0.5;exitY=0;exitDx=0;exitDy=0;entryX=0.5;entryY=1;entryDx=0;entryDy=0;endArrow=none;endFill=0;" edge="1" parent="1" source="4c-o3fyn7Z1UKCA1IbDz-11" target="4c-o3fyn7Z1UKCA1IbDz-2">
          <mxGeometry relative="1" as="geometry" />
        </mxCell>
        <mxCell id="4c-o3fyn7Z1UKCA1IbDz-11" value="Id" style="ellipse;whiteSpace=wrap;html=1;align=center;fontStyle=4;fillColor=#d5e8d4;strokeColor=#82b366;" vertex="1" parent="1">
          <mxGeometry x="30" y="200" width="100" height="40" as="geometry" />
        </mxCell>
        <mxCell id="4c-o3fyn7Z1UKCA1IbDz-12" value="preco" style="ellipse;whiteSpace=wrap;html=1;align=center;fillColor=#d5e8d4;strokeColor=#82b366;" vertex="1" parent="1">
          <mxGeometry x="180" y="200" width="100" height="40" as="geometry" />
        </mxCell>
        <mxCell id="4c-o3fyn7Z1UKCA1IbDz-13" value="&lt;span style=&quot;border-bottom: 1px dotted&quot;&gt;automovel&lt;/span&gt;" style="ellipse;whiteSpace=wrap;html=1;align=center;fillColor=#d5e8d4;strokeColor=#82b366;" vertex="1" parent="1">
          <mxGeometry x="280" y="460" width="100" height="40" as="geometry" />
        </mxCell>
        <mxCell id="4c-o3fyn7Z1UKCA1IbDz-14" value="Id" style="ellipse;whiteSpace=wrap;html=1;align=center;fontStyle=4;fillColor=#d5e8d4;strokeColor=#82b366;" vertex="1" parent="1">
          <mxGeometry x="200" y="360" width="100" height="40" as="geometry" />
        </mxCell>
        <mxCell id="4c-o3fyn7Z1UKCA1IbDz-15" value="area" style="ellipse;whiteSpace=wrap;html=1;align=center;fillColor=#d5e8d4;strokeColor=#82b366;" vertex="1" parent="1">
          <mxGeometry x="220" y="410" width="100" height="40" as="geometry" />
        </mxCell>
        <mxCell id="4c-o3fyn7Z1UKCA1IbDz-16" value="&lt;span style=&quot;border-bottom: 1px dotted&quot;&gt;concessionaria&lt;/span&gt;" style="ellipse;whiteSpace=wrap;html=1;align=center;fillColor=#d5e8d4;strokeColor=#82b366;" vertex="1" parent="1">
          <mxGeometry x="350" y="420" width="100" height="40" as="geometry" />
        </mxCell>
        <mxCell id="4c-o3fyn7Z1UKCA1IbDz-17" value="quantidade" style="ellipse;whiteSpace=wrap;html=1;align=center;fillColor=#d5e8d4;strokeColor=#82b366;" vertex="1" parent="1">
          <mxGeometry x="400" y="380" width="100" height="40" as="geometry" />
        </mxCell>
        <mxCell id="4c-o3fyn7Z1UKCA1IbDz-19" style="rounded=0;orthogonalLoop=1;jettySize=auto;html=1;exitX=0.5;exitY=0;exitDx=0;exitDy=0;entryX=0.5;entryY=1;entryDx=0;entryDy=0;endArrow=none;endFill=0;" edge="1" parent="1" source="4c-o3fyn7Z1UKCA1IbDz-10" target="4c-o3fyn7Z1UKCA1IbDz-2">
          <mxGeometry relative="1" as="geometry" />
        </mxCell>
        <mxCell id="4c-o3fyn7Z1UKCA1IbDz-20" style="rounded=0;orthogonalLoop=1;jettySize=auto;html=1;exitX=0.5;exitY=0;exitDx=0;exitDy=0;entryX=0.5;entryY=1;entryDx=0;entryDy=0;endArrow=none;endFill=0;" edge="1" parent="1" source="4c-o3fyn7Z1UKCA1IbDz-12" target="4c-o3fyn7Z1UKCA1IbDz-2">
          <mxGeometry relative="1" as="geometry" />
        </mxCell>
        <mxCell id="4c-o3fyn7Z1UKCA1IbDz-21" style="rounded=0;orthogonalLoop=1;jettySize=auto;html=1;exitX=0.5;exitY=1;exitDx=0;exitDy=0;entryX=0.5;entryY=0;entryDx=0;entryDy=0;endArrow=none;endFill=0;" edge="1" parent="1" source="4c-o3fyn7Z1UKCA1IbDz-9" target="4c-o3fyn7Z1UKCA1IbDz-3">
          <mxGeometry relative="1" as="geometry" />
        </mxCell>
        <mxCell id="4c-o3fyn7Z1UKCA1IbDz-22" style="rounded=0;orthogonalLoop=1;jettySize=auto;html=1;exitX=0.5;exitY=1;exitDx=0;exitDy=0;entryX=0.5;entryY=0;entryDx=0;entryDy=0;endArrow=none;endFill=0;" edge="1" parent="1" source="4c-o3fyn7Z1UKCA1IbDz-8" target="4c-o3fyn7Z1UKCA1IbDz-3">
          <mxGeometry relative="1" as="geometry" />
        </mxCell>
        <mxCell id="4c-o3fyn7Z1UKCA1IbDz-23" style="rounded=0;orthogonalLoop=1;jettySize=auto;html=1;exitX=0.5;exitY=0;exitDx=0;exitDy=0;entryX=0.5;entryY=1;entryDx=0;entryDy=0;endArrow=none;endFill=0;" edge="1" parent="1" source="4c-o3fyn7Z1UKCA1IbDz-7" target="4c-o3fyn7Z1UKCA1IbDz-4">
          <mxGeometry relative="1" as="geometry" />
        </mxCell>
        <mxCell id="4c-o3fyn7Z1UKCA1IbDz-24" style="rounded=0;orthogonalLoop=1;jettySize=auto;html=1;exitX=0.5;exitY=0;exitDx=0;exitDy=0;entryX=0.5;entryY=1;entryDx=0;entryDy=0;endArrow=none;endFill=0;" edge="1" parent="1" source="4c-o3fyn7Z1UKCA1IbDz-6" target="4c-o3fyn7Z1UKCA1IbDz-4">
          <mxGeometry relative="1" as="geometry" />
        </mxCell>
        <mxCell id="4c-o3fyn7Z1UKCA1IbDz-25" style="rounded=0;orthogonalLoop=1;jettySize=auto;html=1;exitX=0.5;exitY=0;exitDx=0;exitDy=0;entryX=0.5;entryY=1;entryDx=0;entryDy=0;endArrow=none;endFill=0;" edge="1" parent="1" source="4c-o3fyn7Z1UKCA1IbDz-15" target="4c-o3fyn7Z1UKCA1IbDz-5">
          <mxGeometry relative="1" as="geometry" />
        </mxCell>
        <mxCell id="4c-o3fyn7Z1UKCA1IbDz-26" style="rounded=0;orthogonalLoop=1;jettySize=auto;html=1;exitX=0.5;exitY=0;exitDx=0;exitDy=0;entryX=0.5;entryY=1;entryDx=0;entryDy=0;endArrow=none;endFill=0;" edge="1" parent="1" source="4c-o3fyn7Z1UKCA1IbDz-14" target="4c-o3fyn7Z1UKCA1IbDz-5">
          <mxGeometry relative="1" as="geometry" />
        </mxCell>
        <mxCell id="4c-o3fyn7Z1UKCA1IbDz-27" style="rounded=0;orthogonalLoop=1;jettySize=auto;html=1;exitX=0.5;exitY=0;exitDx=0;exitDy=0;entryX=0.5;entryY=1;entryDx=0;entryDy=0;endArrow=none;endFill=0;" edge="1" parent="1" source="4c-o3fyn7Z1UKCA1IbDz-13" target="4c-o3fyn7Z1UKCA1IbDz-5">
          <mxGeometry relative="1" as="geometry" />
        </mxCell>
        <mxCell id="4c-o3fyn7Z1UKCA1IbDz-28" style="rounded=0;orthogonalLoop=1;jettySize=auto;html=1;exitX=0.5;exitY=0;exitDx=0;exitDy=0;entryX=0.5;entryY=1;entryDx=0;entryDy=0;endArrow=none;endFill=0;" edge="1" parent="1" source="4c-o3fyn7Z1UKCA1IbDz-17" target="4c-o3fyn7Z1UKCA1IbDz-5">
          <mxGeometry relative="1" as="geometry" />
        </mxCell>
        <mxCell id="4c-o3fyn7Z1UKCA1IbDz-29" style="rounded=0;orthogonalLoop=1;jettySize=auto;html=1;exitX=0.5;exitY=0;exitDx=0;exitDy=0;entryX=0.5;entryY=1;entryDx=0;entryDy=0;endArrow=none;endFill=0;" edge="1" parent="1" source="4c-o3fyn7Z1UKCA1IbDz-16" target="4c-o3fyn7Z1UKCA1IbDz-5">
          <mxGeometry relative="1" as="geometry" />
        </mxCell>
        <mxCell id="4c-o3fyn7Z1UKCA1IbDz-31" value="contem" style="shape=rhombus;perimeter=rhombusPerimeter;whiteSpace=wrap;html=1;align=center;fillColor=#dae8fc;strokeColor=#6c8ebf;" vertex="1" parent="1">
          <mxGeometry x="457" y="290" width="80" height="40" as="geometry" />
        </mxCell>
        <mxCell id="4c-o3fyn7Z1UKCA1IbDz-32" value="possui" style="shape=rhombus;perimeter=rhombusPerimeter;whiteSpace=wrap;html=1;align=center;fillColor=#dae8fc;strokeColor=#6c8ebf;" vertex="1" parent="1">
          <mxGeometry x="300" y="130" width="80" height="40" as="geometry" />
        </mxCell>
        <mxCell id="4c-o3fyn7Z1UKCA1IbDz-33" value="1" style="rounded=0;orthogonalLoop=1;jettySize=auto;html=1;exitX=0;exitY=0.5;exitDx=0;exitDy=0;entryX=1;entryY=0.5;entryDx=0;entryDy=0;endArrow=none;endFill=0;" edge="1" parent="1" source="4c-o3fyn7Z1UKCA1IbDz-32" target="4c-o3fyn7Z1UKCA1IbDz-2">
          <mxGeometry relative="1" as="geometry" />
        </mxCell>
        <mxCell id="4c-o3fyn7Z1UKCA1IbDz-34" value="N" style="rounded=0;orthogonalLoop=1;jettySize=auto;html=1;exitX=0.5;exitY=1;exitDx=0;exitDy=0;entryX=0.5;entryY=0;entryDx=0;entryDy=0;endArrow=none;endFill=0;" edge="1" parent="1" source="4c-o3fyn7Z1UKCA1IbDz-32" target="4c-o3fyn7Z1UKCA1IbDz-5">
          <mxGeometry relative="1" as="geometry" />
        </mxCell>
        <mxCell id="4c-o3fyn7Z1UKCA1IbDz-35" value="N" style="rounded=0;orthogonalLoop=1;jettySize=auto;html=1;exitX=0;exitY=0.5;exitDx=0;exitDy=0;entryX=1;entryY=0.5;entryDx=0;entryDy=0;endArrow=none;endFill=0;" edge="1" parent="1" source="4c-o3fyn7Z1UKCA1IbDz-31" target="4c-o3fyn7Z1UKCA1IbDz-5">
          <mxGeometry relative="1" as="geometry">
            <mxPoint x="520" y="180" as="sourcePoint" />
            <mxPoint x="520" y="300" as="targetPoint" />
          </mxGeometry>
        </mxCell>
        <mxCell id="4c-o3fyn7Z1UKCA1IbDz-36" value="1" style="rounded=0;orthogonalLoop=1;jettySize=auto;html=1;exitX=0;exitY=0.5;exitDx=0;exitDy=0;entryX=1;entryY=0.5;entryDx=0;entryDy=0;endArrow=none;endFill=0;" edge="1" parent="1" source="4c-o3fyn7Z1UKCA1IbDz-3" target="4c-o3fyn7Z1UKCA1IbDz-31">
          <mxGeometry relative="1" as="geometry">
            <mxPoint x="500" y="260" as="sourcePoint" />
            <mxPoint x="470" y="260" as="targetPoint" />
          </mxGeometry>
        </mxCell>
        <mxCell id="4c-o3fyn7Z1UKCA1IbDz-37" value="Venda" style="whiteSpace=wrap;html=1;align=center;fillColor=#fff2cc;strokeColor=#d6b656;" vertex="1" parent="1">
          <mxGeometry x="606.5" y="410" width="100" height="40" as="geometry" />
        </mxCell>
        <mxCell id="4c-o3fyn7Z1UKCA1IbDz-39" value="Id" style="ellipse;whiteSpace=wrap;html=1;align=center;fontStyle=4;fillColor=#d5e8d4;strokeColor=#82b366;" vertex="1" parent="1">
          <mxGeometry x="470" y="480" width="100" height="40" as="geometry" />
        </mxCell>
        <mxCell id="4c-o3fyn7Z1UKCA1IbDz-41" value="&lt;span style=&quot;border-bottom: 1px dotted&quot;&gt;alocacao&lt;/span&gt;" style="ellipse;whiteSpace=wrap;html=1;align=center;fillColor=#d5e8d4;strokeColor=#82b366;" vertex="1" parent="1">
          <mxGeometry x="696.5" y="540" width="100" height="40" as="geometry" />
        </mxCell>
        <mxCell id="4c-o3fyn7Z1UKCA1IbDz-44" value="&lt;span style=&quot;border-bottom: 1px dotted&quot;&gt;cliente&lt;/span&gt;" style="ellipse;whiteSpace=wrap;html=1;align=center;fillColor=#d5e8d4;strokeColor=#82b366;" vertex="1" parent="1">
          <mxGeometry x="490" y="540" width="100" height="40" as="geometry" />
        </mxCell>
        <mxCell id="4c-o3fyn7Z1UKCA1IbDz-45" value="data" style="ellipse;whiteSpace=wrap;html=1;align=center;fillColor=#d5e8d4;strokeColor=#82b366;" vertex="1" parent="1">
          <mxGeometry x="720" y="480" width="100" height="40" as="geometry" />
        </mxCell>
        <mxCell id="4c-o3fyn7Z1UKCA1IbDz-46" style="rounded=0;orthogonalLoop=1;jettySize=auto;html=1;exitX=0.559;exitY=0.022;exitDx=0;exitDy=0;entryX=0.5;entryY=1;entryDx=0;entryDy=0;endArrow=none;endFill=0;exitPerimeter=0;" edge="1" parent="1" source="4c-o3fyn7Z1UKCA1IbDz-39" target="4c-o3fyn7Z1UKCA1IbDz-37">
          <mxGeometry relative="1" as="geometry" />
        </mxCell>
        <mxCell id="4c-o3fyn7Z1UKCA1IbDz-47" style="rounded=0;orthogonalLoop=1;jettySize=auto;html=1;exitX=0.5;exitY=0;exitDx=0;exitDy=0;entryX=0.5;entryY=1;entryDx=0;entryDy=0;endArrow=none;endFill=0;" edge="1" parent="1" source="4c-o3fyn7Z1UKCA1IbDz-44" target="4c-o3fyn7Z1UKCA1IbDz-37">
          <mxGeometry relative="1" as="geometry" />
        </mxCell>
        <mxCell id="4c-o3fyn7Z1UKCA1IbDz-49" style="rounded=0;orthogonalLoop=1;jettySize=auto;html=1;exitX=0.5;exitY=0;exitDx=0;exitDy=0;entryX=0.5;entryY=1;entryDx=0;entryDy=0;endArrow=none;endFill=0;" edge="1" parent="1" source="4c-o3fyn7Z1UKCA1IbDz-41" target="4c-o3fyn7Z1UKCA1IbDz-37">
          <mxGeometry relative="1" as="geometry" />
        </mxCell>
        <mxCell id="4c-o3fyn7Z1UKCA1IbDz-50" style="rounded=0;orthogonalLoop=1;jettySize=auto;html=1;exitX=0;exitY=0;exitDx=0;exitDy=0;entryX=0.5;entryY=1;entryDx=0;entryDy=0;endArrow=none;endFill=0;" edge="1" parent="1" source="4c-o3fyn7Z1UKCA1IbDz-45" target="4c-o3fyn7Z1UKCA1IbDz-37">
          <mxGeometry relative="1" as="geometry" />
        </mxCell>
        <mxCell id="4c-o3fyn7Z1UKCA1IbDz-51" value="faz" style="shape=rhombus;perimeter=rhombusPerimeter;whiteSpace=wrap;html=1;align=center;fillColor=#dae8fc;strokeColor=#6c8ebf;" vertex="1" parent="1">
          <mxGeometry x="480" y="340" width="80" height="40" as="geometry" />
        </mxCell>
        <mxCell id="4c-o3fyn7Z1UKCA1IbDz-52" value="1" style="rounded=0;orthogonalLoop=1;jettySize=auto;html=1;exitX=0;exitY=0.5;exitDx=0;exitDy=0;entryX=1;entryY=0.75;entryDx=0;entryDy=0;endArrow=none;endFill=0;" edge="1" parent="1" source="4c-o3fyn7Z1UKCA1IbDz-51" target="4c-o3fyn7Z1UKCA1IbDz-5">
          <mxGeometry relative="1" as="geometry">
            <mxPoint x="590" y="310" as="sourcePoint" />
            <mxPoint x="550" y="310" as="targetPoint" />
          </mxGeometry>
        </mxCell>
        <mxCell id="4c-o3fyn7Z1UKCA1IbDz-53" value="N" style="rounded=0;orthogonalLoop=1;jettySize=auto;html=1;exitX=0.5;exitY=0;exitDx=0;exitDy=0;entryX=1;entryY=0.5;entryDx=0;entryDy=0;endArrow=none;endFill=0;" edge="1" parent="1" source="4c-o3fyn7Z1UKCA1IbDz-37" target="4c-o3fyn7Z1UKCA1IbDz-51">
          <mxGeometry relative="1" as="geometry">
            <mxPoint x="630" y="370" as="sourcePoint" />
            <mxPoint x="560" y="350" as="targetPoint" />
          </mxGeometry>
        </mxCell>
        <mxCell id="4c-o3fyn7Z1UKCA1IbDz-54" value="compra" style="shape=rhombus;perimeter=rhombusPerimeter;whiteSpace=wrap;html=1;align=center;fillColor=#dae8fc;strokeColor=#6c8ebf;" vertex="1" parent="1">
          <mxGeometry x="616.5" y="510" width="80" height="40" as="geometry" />
        </mxCell>
        <mxCell id="4c-o3fyn7Z1UKCA1IbDz-55" value="N" style="rounded=0;orthogonalLoop=1;jettySize=auto;html=1;entryX=0.5;entryY=1;entryDx=0;entryDy=0;endArrow=none;endFill=0;" edge="1" parent="1" source="4c-o3fyn7Z1UKCA1IbDz-54" target="4c-o3fyn7Z1UKCA1IbDz-37">
          <mxGeometry relative="1" as="geometry" />
        </mxCell>
        <mxCell id="4c-o3fyn7Z1UKCA1IbDz-56" value="1" style="rounded=0;orthogonalLoop=1;jettySize=auto;html=1;entryX=0.5;entryY=0;entryDx=0;entryDy=0;endArrow=none;endFill=0;exitX=0.5;exitY=1;exitDx=0;exitDy=0;" edge="1" parent="1" source="4c-o3fyn7Z1UKCA1IbDz-54" target="4c-o3fyn7Z1UKCA1IbDz-4">
          <mxGeometry relative="1" as="geometry">
            <mxPoint x="670" y="560" as="sourcePoint" />
          </mxGeometry>
        </mxCell>
      </root>
    </mxGraphModel>
  </diagram>
</mxfile>
